<?xml version="1.0" encoding="UTF-8"?>
<!DOCTYPE svg PUBLIC "-//W3C//DTD SVG 1.1//EN" "http://www.w3.org/Graphics/SVG/1.1/DTD/svg11.dtd">
<svg xmlns="http://www.w3.org/2000/svg" version="1.1" width="310px" height="310px" style="shape-rendering:geometricPrecision; text-rendering:geometricPrecision; image-rendering:optimizeQuality; fill-rule:evenodd; clip-rule:evenodd" xmlns:xlink="http://www.w3.org/1999/xlink">
<g><path style="opacity:0.98" fill="#312104" d="M 231.5,37.5 C 230.502,63.328 230.169,89.328 230.5,115.5C 224.167,115.5 217.833,115.5 211.5,115.5C 211.5,89.8333 211.5,64.1667 211.5,38.5C 166.167,38.5 120.833,38.5 75.5,38.5C 69.1667,38.5 62.8333,38.5 56.5,38.5C 56.5,64.1667 56.5,89.8333 56.5,115.5C 49.8333,115.5 43.1667,115.5 36.5,115.5C 36.5,89.5 36.5,63.5 36.5,37.5C 42.8333,37.5 49.1667,37.5 55.5,37.5C 55.5,31.1667 55.5,24.8333 55.5,18.5C 114.167,18.5 172.833,18.5 231.5,18.5C 231.5,24.8333 231.5,31.1667 231.5,37.5 Z"/></g>
<g><path style="opacity:0.985" fill="#c6c6c5" d="M 231.5,37.5 C 237.833,37.5 244.167,37.5 250.5,37.5C 250.5,44.1667 250.5,50.8333 250.5,57.5C 250.5,76.8333 250.5,96.1667 250.5,115.5C 250.167,115.5 249.833,115.5 249.5,115.5C 243.167,115.5 236.833,115.5 230.5,115.5C 230.169,89.328 230.502,63.328 231.5,37.5 Z"/></g>
<g><path style="opacity:1" fill="#512e0f" d="M 75.5,38.5 C 75.5,64.1667 75.5,89.8333 75.5,115.5C 69.1667,115.5 62.8333,115.5 56.5,115.5C 56.5,89.8333 56.5,64.1667 56.5,38.5C 62.8333,38.5 69.1667,38.5 75.5,38.5 Z"/></g>
<g><path style="opacity:1" fill="#644a16" d="M 75.5,38.5 C 120.833,38.5 166.167,38.5 211.5,38.5C 211.5,64.1667 211.5,89.8333 211.5,115.5C 205.167,115.5 198.833,115.5 192.5,115.5C 192.167,115.5 191.833,115.5 191.5,115.5C 185.167,115.5 178.833,115.5 172.5,115.5C 172.5,109.167 172.5,102.833 172.5,96.5C 178.833,96.5 185.167,96.5 191.5,96.5C 192.491,90.021 192.824,83.3543 192.5,76.5C 159.833,76.5 127.167,76.5 94.5,76.5C 94.176,83.3543 94.5093,90.021 95.5,96.5C 101.833,96.5 108.167,96.5 114.5,96.5C 114.5,102.833 114.5,109.167 114.5,115.5C 108.167,115.5 101.833,115.5 95.5,115.5C 88.8333,115.5 82.1667,115.5 75.5,115.5C 75.5,89.8333 75.5,64.1667 75.5,38.5 Z"/></g>
<g><path style="opacity:0.95" fill="#312104" d="M 250.5,57.5 C 257.167,57.5 263.833,57.5 270.5,57.5C 270.5,83.5 270.5,109.5 270.5,135.5C 263.833,135.5 257.167,135.5 250.5,135.5C 250.5,128.833 250.5,122.167 250.5,115.5C 250.5,96.1667 250.5,76.8333 250.5,57.5 Z"/></g>
<g><path style="opacity:1" fill="#553f14" d="M 191.5,96.5 C 191.5,90.1667 191.5,83.8333 191.5,77.5C 159.5,77.5 127.5,77.5 95.5,77.5C 95.5,83.8333 95.5,90.1667 95.5,96.5C 94.5093,90.021 94.176,83.3543 94.5,76.5C 127.167,76.5 159.833,76.5 192.5,76.5C 192.824,83.3543 192.491,90.021 191.5,96.5 Z"/></g>
<g><path style="opacity:1" fill="#443310" d="M 191.5,96.5 C 185.167,96.5 178.833,96.5 172.5,96.5C 172.5,102.833 172.5,109.167 172.5,115.5C 159.5,115.5 146.5,115.5 133.5,115.5C 127.167,115.5 120.833,115.5 114.5,115.5C 114.5,109.167 114.5,102.833 114.5,96.5C 108.167,96.5 101.833,96.5 95.5,96.5C 95.5,90.1667 95.5,83.8333 95.5,77.5C 127.5,77.5 159.5,77.5 191.5,77.5C 191.5,83.8333 191.5,90.1667 191.5,96.5 Z"/></g>
<g><path style="opacity:0.972" fill="#6b1717" d="M 36.5,115.5 C 43.1667,115.5 49.8333,115.5 56.5,115.5C 56.5,128.5 56.5,141.5 56.5,154.5C 49.8333,154.5 43.1667,154.5 36.5,154.5C 36.5,141.5 36.5,128.5 36.5,115.5 Z"/></g>
<g><path style="opacity:1" fill="#9c1b36" d="M 56.5,115.5 C 62.8333,115.5 69.1667,115.5 75.5,115.5C 82.1667,115.5 88.8333,115.5 95.5,115.5C 95.5,122.167 95.5,128.833 95.5,135.5C 101.833,135.5 108.167,135.5 114.5,135.5C 114.5,141.833 114.5,148.167 114.5,154.5C 101.833,154.5 89.1667,154.5 76.5,154.5C 76.1667,154.5 75.8333,154.5 75.5,154.5C 69.1667,154.5 62.8333,154.5 56.5,154.5C 56.5,141.5 56.5,128.5 56.5,115.5 Z"/></g>
<g><path style="opacity:1" fill="#a42d2a" d="M 95.5,115.5 C 101.833,115.5 108.167,115.5 114.5,115.5C 120.833,115.5 127.167,115.5 133.5,115.5C 133.5,122.167 133.5,128.833 133.5,135.5C 153.007,135.83 172.341,135.497 191.5,134.5C 191.5,128.5 191.5,122.5 191.5,116.5C 191.5,116.167 191.5,115.833 191.5,115.5C 191.833,115.5 192.167,115.5 192.5,115.5C 192.5,128.5 192.5,141.5 192.5,154.5C 185.833,154.5 179.167,154.5 172.5,154.5C 153.167,154.5 133.833,154.5 114.5,154.5C 114.5,148.167 114.5,141.833 114.5,135.5C 108.167,135.5 101.833,135.5 95.5,135.5C 95.5,128.833 95.5,122.167 95.5,115.5 Z"/></g>
<g><path style="opacity:1" fill="#c41338" d="M 191.5,116.5 C 191.5,122.5 191.5,128.5 191.5,134.5C 172.5,134.5 153.5,134.5 134.5,134.5C 134.5,128.5 134.5,122.5 134.5,116.5C 153.5,116.5 172.5,116.5 191.5,116.5 Z"/></g>
<g><path style="opacity:1" fill="#d1a015" d="M 192.5,115.5 C 198.833,115.5 205.167,115.5 211.5,115.5C 217.833,115.5 224.167,115.5 230.5,115.5C 230.5,122.167 230.5,128.833 230.5,135.5C 224.167,135.5 217.833,135.5 211.5,135.5C 211.5,141.833 211.5,148.167 211.5,154.5C 205.167,154.5 198.833,154.5 192.5,154.5C 192.5,141.5 192.5,128.5 192.5,115.5 Z"/></g>
<g><path style="opacity:1" fill="#a4302b" d="M 230.5,115.5 C 236.833,115.5 243.167,115.5 249.5,115.5C 249.5,122.167 249.5,128.833 249.5,135.5C 243.5,135.5 237.5,135.5 231.5,135.5C 231.823,142.022 231.49,148.355 230.5,154.5C 230.5,148.167 230.5,141.833 230.5,135.5C 230.5,128.833 230.5,122.167 230.5,115.5 Z"/></g>
<g><path style="opacity:1" fill="#b31c32" d="M 133.5,115.5 C 146.5,115.5 159.5,115.5 172.5,115.5C 178.833,115.5 185.167,115.5 191.5,115.5C 191.5,115.833 191.5,116.167 191.5,116.5C 172.5,116.5 153.5,116.5 134.5,116.5C 134.5,122.5 134.5,128.5 134.5,134.5C 153.5,134.5 172.5,134.5 191.5,134.5C 172.341,135.497 153.007,135.83 133.5,135.5C 133.5,128.833 133.5,122.167 133.5,115.5 Z"/></g>
<g><path style="opacity:1" fill="#d39619" d="M 230.5,135.5 C 230.5,141.833 230.5,148.167 230.5,154.5C 224.167,154.5 217.833,154.5 211.5,154.5C 211.5,148.167 211.5,141.833 211.5,135.5C 217.833,135.5 224.167,135.5 230.5,135.5 Z"/></g>
<g><path style="opacity:0.983" fill="#88211f" d="M 249.5,115.5 C 249.833,115.5 250.167,115.5 250.5,115.5C 250.5,122.167 250.5,128.833 250.5,135.5C 257.167,135.5 263.833,135.5 270.5,135.5C 270.5,141.833 270.5,148.167 270.5,154.5C 263.833,154.5 257.167,154.5 250.5,154.5C 250.5,160.833 250.5,167.167 250.5,173.5C 243.833,173.5 237.167,173.5 230.5,173.5C 230.5,167.167 230.5,160.833 230.5,154.5C 231.49,148.355 231.823,142.022 231.5,135.5C 237.5,135.5 243.5,135.5 249.5,135.5C 249.5,128.833 249.5,122.167 249.5,115.5 Z"/></g>
<g><path style="opacity:0.966" fill="#312104" d="M 36.5,154.5 C 43.1667,154.5 49.8333,154.5 56.5,154.5C 56.5,186.5 56.5,218.5 56.5,250.5C 56.5,250.833 56.5,251.167 56.5,251.5C 56.5,257.833 56.5,264.167 56.5,270.5C 62.6446,271.49 68.9779,271.823 75.5,271.5C 75.5,277.833 75.5,284.167 75.5,290.5C 68.8333,290.5 62.1667,290.5 55.5,290.5C 55.5,284.167 55.5,277.833 55.5,271.5C 49.1667,271.5 42.8333,271.5 36.5,271.5C 36.5,232.5 36.5,193.5 36.5,154.5 Z"/></g>
<g><path style="opacity:1" fill="#512e0f" d="M 56.5,154.5 C 62.8333,154.5 69.1667,154.5 75.5,154.5C 75.5,180.5 75.5,206.5 75.5,232.5C 120.5,232.5 165.5,232.5 210.5,232.5C 210.5,238.5 210.5,244.5 210.5,250.5C 159.167,250.5 107.833,250.5 56.5,250.5C 56.5,218.5 56.5,186.5 56.5,154.5 Z"/></g>
<g><path style="opacity:1" fill="#644a16" d="M 76.5,154.5 C 89.1667,154.5 101.833,154.5 114.5,154.5C 114.5,160.833 114.5,167.167 114.5,173.5C 133.833,173.5 153.167,173.5 172.5,173.5C 172.5,167.167 172.5,160.833 172.5,154.5C 179.167,154.5 185.833,154.5 192.5,154.5C 198.833,154.5 205.167,154.5 211.5,154.5C 211.5,180.167 211.5,205.833 211.5,231.5C 166.5,231.5 121.5,231.5 76.5,231.5C 76.5,205.833 76.5,180.167 76.5,154.5 Z"/></g>
<g><path style="opacity:1" fill="#443310" d="M 114.5,154.5 C 133.833,154.5 153.167,154.5 172.5,154.5C 172.5,160.833 172.5,167.167 172.5,173.5C 153.167,173.5 133.833,173.5 114.5,173.5C 114.5,167.167 114.5,160.833 114.5,154.5 Z"/></g>
<g><path style="opacity:1" fill="#302103" d="M 211.5,154.5 C 217.833,154.5 224.167,154.5 230.5,154.5C 230.5,160.833 230.5,167.167 230.5,173.5C 230.5,192.833 230.5,212.167 230.5,231.5C 224.167,231.5 217.833,231.5 211.5,231.5C 211.5,205.833 211.5,180.167 211.5,154.5 Z"/></g>
<g><path style="opacity:0.952" fill="#601413" d="M 270.5,154.5 C 270.5,167.5 270.5,180.5 270.5,193.5C 263.833,193.5 257.167,193.5 250.5,193.5C 250.5,186.833 250.5,180.167 250.5,173.5C 250.5,167.167 250.5,160.833 250.5,154.5C 257.167,154.5 263.833,154.5 270.5,154.5 Z"/></g>
<g><path style="opacity:1" fill="#cacaca" d="M 249.5,251.5 C 243.5,251.5 237.5,251.5 231.5,251.5C 230.51,257.645 230.177,263.978 230.5,270.5C 172.5,270.5 114.5,270.5 56.5,270.5C 56.5,264.167 56.5,257.833 56.5,251.5C 108.167,251.5 159.833,251.5 211.5,251.5C 211.5,245.167 211.5,238.833 211.5,232.5C 218.022,232.823 224.355,232.49 230.5,231.5C 231.497,212.674 231.83,193.674 231.5,174.5C 237.5,174.5 243.5,174.5 249.5,174.5C 249.5,200.167 249.5,225.833 249.5,251.5 Z"/></g>
<g><path style="opacity:1" fill="#9c928b" d="M 230.5,173.5 C 237.167,173.5 243.833,173.5 250.5,173.5C 250.5,180.167 250.5,186.833 250.5,193.5C 250.5,212.833 250.5,232.167 250.5,251.5C 250.167,251.5 249.833,251.5 249.5,251.5C 249.5,225.833 249.5,200.167 249.5,174.5C 243.5,174.5 237.5,174.5 231.5,174.5C 231.83,193.674 231.497,212.674 230.5,231.5C 230.5,212.167 230.5,192.833 230.5,173.5 Z"/></g>
<g><path style="opacity:0.95" fill="#302103" d="M 250.5,193.5 C 257.167,193.5 263.833,193.5 270.5,193.5C 270.5,212.833 270.5,232.167 270.5,251.5C 263.833,251.5 257.167,251.5 250.5,251.5C 250.5,232.167 250.5,212.833 250.5,193.5 Z"/></g>
<g><path style="opacity:1" fill="#5f421a" d="M 75.5,154.5 C 75.8333,154.5 76.1667,154.5 76.5,154.5C 76.5,180.167 76.5,205.833 76.5,231.5C 121.5,231.5 166.5,231.5 211.5,231.5C 217.833,231.5 224.167,231.5 230.5,231.5C 224.355,232.49 218.022,232.823 211.5,232.5C 211.167,232.5 210.833,232.5 210.5,232.5C 165.5,232.5 120.5,232.5 75.5,232.5C 75.5,206.5 75.5,180.5 75.5,154.5 Z"/></g>
<g><path style="opacity:1" fill="#604126" d="M 210.5,232.5 C 210.833,232.5 211.167,232.5 211.5,232.5C 211.5,238.833 211.5,245.167 211.5,251.5C 159.833,251.5 108.167,251.5 56.5,251.5C 56.5,251.167 56.5,250.833 56.5,250.5C 107.833,250.5 159.167,250.5 210.5,250.5C 210.5,244.5 210.5,238.5 210.5,232.5 Z"/></g>
<g><path style="opacity:0.945" fill="#302103" d="M 231.5,251.5 C 237.5,251.5 243.5,251.5 249.5,251.5C 249.833,251.5 250.167,251.5 250.5,251.5C 250.5,258.167 250.5,264.833 250.5,271.5C 244.167,271.5 237.833,271.5 231.5,271.5C 231.5,264.833 231.5,258.167 231.5,251.5 Z"/></g>
<g><path style="opacity:1" fill="#6c533d" d="M 231.5,251.5 C 231.5,258.167 231.5,264.833 231.5,271.5C 179.5,271.5 127.5,271.5 75.5,271.5C 68.9779,271.823 62.6446,271.49 56.5,270.5C 114.5,270.5 172.5,270.5 230.5,270.5C 230.177,263.978 230.51,257.645 231.5,251.5 Z"/></g>
<g><path style="opacity:0.976" fill="#512d0f" d="M 75.5,271.5 C 127.5,271.5 179.5,271.5 231.5,271.5C 231.5,277.833 231.5,284.167 231.5,290.5C 179.5,290.5 127.5,290.5 75.5,290.5C 75.5,284.167 75.5,277.833 75.5,271.5 Z"/></g>
</svg>
